PathFileType	4	(X/Y/Z)	C:\Users\WrightLab\Desktop\Jo\P2_Trial18.trc
DataRate	CameraRate	NumFrames	NumMarkers	Units	OrigDataRate	OrigDataStartFrame	OrigNumFrames
100.00	100.00	       20	19	mm	100.00	1	       433
Frame#	Time	Headset_Front			Headset_Back			Headset_Left			Headset_Right			Left_Shoulder			Right_Shoulder			Sternum			C7			Left Elbow			Right Elbow			Left Wrist			Right Wrist			Left ASIS			Right ASIS			S2			Left Knee			Right Knee			Left Ankle			Right Ankle			
		X1	Y1	Z1	X2	Y2	Z2	X3	Y3	Z3	X4	Y4	Z4	X5	Y5	Z5	X6	Y6	Z6	X7	Y7	Z7	X8	Y8	Z8	X9	Y9	Z9	X10	Y10	Z10	X11	Y11	Z11	X12	Y12	Z12	X13	Y13	Z13	X14	Y14	Z14	X15	Y15	Z15	X16	Y16	Z16	X17	Y17	Z17	X18	Y18	Z18	X19	Y19	Z19	

1	0.000																																		-610.16516	787.04602	-1367.56384				-315.09726	905.26392	-1441.55103	-408.90082	991.40588	-1196.88940	-112.75332	412.27362	-1329.09204				-107.48141	53.11217	-1379.99817	-493.42755	110.09389	-1125.66846	
2	0.010																																		-610.95081	790.18976	-1355.23962				-317.00467	904.84662	-1437.38049	-412.58951	991.43738	-1192.19287	-116.48942	410.24106	-1325.94080				-107.25903	52.81049	-1379.98132	-507.53412	106.12713	-1118.15198	
3	0.020																																		-611.14398	785.20502	-1366.48950				-318.89792	904.63849	-1434.03320	-417.56351	989.74005	-1189.87988	-121.06135	409.58148	-1321.51892				-106.85858	52.82836	-1380.58777	-524.34961	102.70380	-1106.38635	
4	0.030																																		-613.70715	784.60852	-1366.52612				-320.80383	904.11200	-1429.83960	-421.38324	988.16864	-1184.74927	-124.82088	409.31985	-1319.53674				-106.32050	52.90060	-1380.19873	-538.64960	101.80392	-1092.37158	
5	0.040																																		-615.90350	784.31421	-1364.87109	-294.77411	1003.18854	-1167.90833	-323.05295	902.88898	-1425.52881	-425.48499	986.93073	-1181.21179	-128.94934	407.54709	-1315.44092				-105.69902	52.94159	-1380.65259	-553.35248	101.69112	-1080.49084	
6	0.050																																		-617.78815	783.88379	-1366.04651	-300.65335	1001.83209	-1159.23730	-325.70056	901.37714	-1420.70520	-430.56036	984.86829	-1179.38892	-133.67502	406.73691	-1312.00354				-105.38101	53.04173	-1380.84778	-569.51471	98.89827	-1075.35266	
7	0.060																																		-622.00732	784.24768	-1361.88110	-305.52090	1001.53674	-1154.37610	-328.62338	900.25525	-1416.31165	-435.09625	984.34106	-1172.85632	-137.97577	403.59805	-1306.03308				-105.38101	53.04173	-1380.84778	-583.23114	100.24776	-1062.59570	
8	0.070																																		-624.49261	781.83331	-1365.02112	-309.64160	998.54413	-1146.81824	-332.07391	899.40210	-1412.61682	-440.63040	982.54700	-1169.24329	-141.07227	403.12704	-1304.28015				-105.34392	52.95647	-1380.91687	-597.10944	102.07429	-1054.05847	
9	0.080																																		-629.96857	783.53577	-1360.69800	-314.77362	995.68011	-1142.51477	-335.81467	898.39783	-1408.40967	-444.73608	980.20898	-1165.55029	-145.19171	401.22717	-1299.78308				-105.70060	52.27917	-1380.94043	-612.67999	100.72058	-1046.97278	
10	0.090																																		-635.29242	783.50110	-1357.40332	-319.09790	994.30194	-1137.80798	-339.89868	897.96088	-1404.95679	-449.88165	978.19647	-1162.62207	-148.44804	399.94144	-1295.58118				-106.27016	51.80902	-1380.41187	-625.28088	102.55324	-1036.82617	
11	0.100																																		-640.96161	788.05176	-1346.25134	-324.76672	992.00360	-1134.27966	-344.48453	896.92181	-1400.82874	-454.46930	973.84906	-1160.50562	-152.49608	398.59631	-1290.39917				-106.54338	50.97765	-1379.30432	-638.55212	104.53717	-1027.89771	
12	0.110																																		-647.57056	785.73688	-1354.82813	-330.48734	988.76398	-1129.01880	-349.37390	895.78418	-1396.03162	-460.32324	972.96252	-1152.42639	-156.33235	396.90573	-1287.00439				-107.35408	50.85347	-1378.44739	-653.00281	106.82477	-1016.86163	
13	0.120																																		-654.02966	786.50531	-1354.95203	-335.59860	986.91431	-1125.58752	-354.78540	895.08728	-1391.96631	-465.88016	970.47681	-1150.09119	-161.05418	394.96768	-1283.66089				-107.80849	50.87080	-1378.69214	-665.29883	107.27159	-1013.58649	
14	0.130																																		-661.15881	792.95544	-1341.45593	-341.81421	984.46490	-1120.53638	-360.38162	894.15222	-1387.11816	-471.55255	968.26886	-1143.85657	-164.28157	394.22977	-1280.70911				-108.58685	50.38119	-1378.65295	-677.33313	110.15902	-1006.92670	
15	0.140																																		-669.53778	794.62677	-1337.83435	-347.77856	981.30035	-1114.76062	-366.21762	893.93140	-1383.20898	-478.00632	966.29224	-1138.72241	-167.43596	392.76819	-1278.38013				-111.06376	49.71272	-1375.37390	-688.74518	113.33791	-995.65686	
16	0.150																																		-678.10669	793.70947	-1345.01758	-353.44659	980.77600	-1109.47485	-372.16266	893.11243	-1377.77686	-483.78119	963.68188	-1137.49316	-170.44612	391.51288	-1277.35852				-111.93739	49.21519	-1374.44751	-699.63745	115.69552	-990.50726	
17	0.160										-551.89667	1494.02283	-1095.95728																						-686.84271	798.96936	-1331.65100	-360.36792	977.90845	-1104.30334	-378.19095	892.80304	-1372.58325	-490.32034	962.36914	-1129.70679	-174.22913	391.28125	-1274.19836				-113.88074	49.45400	-1373.98218	-710.86194	118.90325	-984.22089	
18	0.170										-555.88300	1493.49072	-1089.75598																						-695.65057	801.74451	-1329.42676	-367.28625	977.12921	-1096.95435	-384.37350	892.37213	-1366.97070	-497.96762	960.77643	-1125.52576	-178.02666	390.54993	-1270.49829				-115.66013	50.19831	-1372.92334	-720.25653	119.05689	-982.18341	
19	0.180										-560.08044	1492.57117	-1083.47607							-423.84149	1267.43665	-1116.62158													-706.56091	803.03766	-1334.55151	-375.30988	975.37781	-1092.17139	-390.77396	892.12555	-1360.98828	-505.54239	962.95660	-1111.65125	-181.58829	389.61542	-1267.94238				-118.48340	50.67754	-1372.59741	-730.79425	123.92700	-973.49213	
20	0.190				-485.10272	1448.11328	-956.63751				-564.26782	1491.75757	-1077.20288							-429.86221	1267.01013	-1110.65271													-714.50610	807.93445	-1324.15039	-382.51276	975.20465	-1081.75513	-397.28766	891.70520	-1354.53833	-512.07635	961.31500	-1105.91846	-185.71158	389.51123	-1264.37085				-120.81971	51.31130	-1371.09229	-740.46606	126.55199	-967.78857	
